<svg width="455" height="191" viewBox="0 0 455 191" fill="none" xmlns="http://www.w3.org/2000/svg">
<path fill-rule="evenodd" clip-rule="evenodd" d="M289.372 0.882919H454.706V1.17722C454.931 2.19476 451.054 7.86251 450.297 9.12329L436.042 33.8444C418.065 65.135 400.086 96.4288 382.106 127.726H361.237V127.579C382.153 91.5305 403.071 55.4789 423.991 19.4237V19.2766H299.806C296.329 13.146 292.851 7.01474 289.372 0.882919ZM113.897 109.626C113.848 115.659 113.799 121.692 113.75 127.726L0.146999 127.579L72.0123 1.17722H93.469L47.9102 80.3436L35.2714 102.269C34.1818 104.109 31.1406 107.608 31.1564 109.626H113.897ZM121.686 1.17722H138.734L202.369 65.1872C203.517 64.3148 203.958 62.6237 204.721 61.3613C207.072 57.2412 209.423 53.121 211.775 49.0008C220.984 33.0613 230.193 17.1201 239.404 1.17722L259.979 1.32437C243.422 30.0647 226.864 58.8079 210.305 87.554H199.871C179.788 67.5437 159.703 47.5314 139.616 27.517H139.469V127.431H121.686V1.17722ZM269.091 1.17722H280.995C317.586 64.3962 354.18 127.621 390.777 190.853H369.761C349.238 155.54 328.712 120.224 308.183 84.9053H252.484C255.913 78.8727 259.342 72.8396 262.771 66.8059L297.749 66.6587V66.5116C292.164 56.9478 286.579 47.3831 280.995 37.8174C279.806 35.8134 276.533 28.2969 274.822 27.517C260.52 52.2848 246.215 77.0549 231.909 101.827C228.285 108.154 224.66 114.482 221.034 120.81C219.993 122.651 218.851 126.378 217.066 127.431L196.638 127.579V127.431C220.787 85.351 244.938 43.2663 269.091 1.17722ZM305.979 25.8983H399.448C403.044 25.8983 407.517 25.5044 410.617 26.1926C411.084 26.8276 411.397 27.0259 411.499 28.1056C399.008 49.9305 386.516 71.7577 374.023 93.5871C370.594 99.5707 367.165 105.555 363.736 111.539C362.685 113.283 361.904 116.376 360.061 117.278H358.592C356.683 115.778 358.875 112.869 359.767 111.392C362.707 106.243 365.646 101.092 368.585 95.9415C381.271 73.8712 393.959 51.7988 406.649 29.7242C406.6 29.6261 406.55 29.5281 406.502 29.4299H312.886C309.879 29.4299 306.251 29.7801 304.509 28.547C304.461 28.1547 304.411 27.7621 304.362 27.3698C304.813 26.4651 305.112 26.3839 305.979 25.8983Z" fill="url(#paint0_linear_8_4864)" stroke="#0A0A0A"/>
<defs>
<linearGradient id="paint0_linear_8_4864" x1="227.431" y1="0.882919" x2="227.431" y2="190.853" gradientUnits="userSpaceOnUse">
<stop stop-color="#0DE5FF"/>
<stop offset="0.775" stop-color="#C53AFF"/>
</linearGradient>
</defs>
</svg>
